<svg width="244" height="244" viewBox="0 0 244 244" fill="none" xmlns="http://www.w3.org/2000/svg">
<g filter="url(#filter0_d)">
<path d="M121.039 139.665C132.695 139.665 142.144 130.242 142.144 118.619C142.144 106.996 132.695 97.5737 121.039 97.5737C109.383 97.5737 99.9336 106.996 99.9336 118.619C99.9336 130.242 109.383 139.665 121.039 139.665Z" fill="#414042"/>
<path d="M147.421 66.9626H94.6578C86.9831 66.9626 80.2677 69.3542 75.9507 73.6589C71.6337 77.9637 69.2354 84.6599 69.2354 92.3128V144.926C69.2354 152.579 71.6337 159.276 76.4304 164.059C81.2271 168.363 87.4628 170.755 95.1374 170.755H147.421C155.096 170.755 161.811 168.363 166.128 164.059C170.925 159.754 173.323 153.058 173.323 145.405V92.7911C173.323 85.1382 170.925 78.9203 166.608 74.1372C161.811 69.3542 155.576 66.9626 147.421 66.9626ZM121.04 151.144C102.812 151.144 88.4221 136.317 88.4221 118.62C88.4221 100.444 103.292 86.0949 121.04 86.0949C138.787 86.0949 154.137 100.444 154.137 118.62C154.137 136.795 139.267 151.144 121.04 151.144ZM155.096 92.3128C150.779 92.3128 147.421 88.9647 147.421 84.6599C147.421 80.3552 150.779 77.0071 155.096 77.0071C159.413 77.0071 162.771 80.3552 162.771 84.6599C162.771 88.9647 159.413 92.3128 155.096 92.3128Z" fill="#414042"/>
<path d="M121.998 0C56.7635 0 4 52.6136 4 117.663C4 182.713 56.7635 235.326 121.998 235.326C187.233 235.326 239.997 182.713 239.997 117.663C240.476 52.6136 187.233 0 121.998 0ZM184.835 145.405C184.835 156.406 180.998 165.972 174.282 172.668C167.567 179.364 157.973 182.713 147.421 182.713H95.137C84.5843 182.713 74.9909 179.364 68.2755 172.668C61.0805 165.972 57.7228 156.406 57.7228 145.405V92.7912C57.7228 70.7892 72.5926 55.4834 95.137 55.4834H147.9C158.933 55.4834 168.047 59.3099 174.762 66.0061C181.477 72.7024 184.835 81.7902 184.835 92.7912V145.405Z" fill="#414042"/>
</g>
<defs>
<filter id="filter0_d" x="0" y="0" width="244" height="245" filterUnits="userSpaceOnUse" color-interpolation-filters="sRGB">
<feFlood flood-opacity="0" result="BackgroundImageFix"/>
<feColorMatrix in="SourceAlpha" type="matrix" values="0 0 0 0 0 0 0 0 0 0 0 0 0 0 0 0 0 0 127 0"/>
<feOffset dy="4"/>
<feGaussianBlur stdDeviation="2"/>
<feColorMatrix type="matrix" values="0 0 0 0 0 0 0 0 0 0 0 0 0 0 0 0 0 0 0.25 0"/>
<feBlend mode="normal" in2="BackgroundImageFix" result="effect1_dropShadow"/>
<feBlend mode="normal" in="SourceGraphic" in2="effect1_dropShadow" result="shape"/>
</filter>
</defs>
</svg>
