<svg width="552" height="368" viewBox="0 0 552 368" fill="none" xmlns="http://www.w3.org/2000/svg">
<g filter="url(#filter0_d)">
<g filter="url(#filter1_di)">
<path d="M230.167 252.385C241.105 247.227 257.577 239.469 268.305 234.412C271.51 232.901 275.185 235.522 274.243 238.71C271.411 248.353 272.224 264.272 296.674 280.682C299.296 282.439 299.667 291.208 296.641 292.377C287.042 296.1 269.023 297.703 257.965 301.986C247.587 306.009 235.6 305.021 226.682 298.894C219.642 294.058 213.831 285.984 215.154 272.557C215.992 263.968 221.74 256.355 230.167 252.385Z" fill="#414042"/>
<path d="M263.198 238.221C246.061 237.949 238.043 298.86 290.198 297.192L263.198 238.221Z" fill="#8E8F93"/>
<path d="M349.438 141.135C322.641 202.924 275.939 228.999 263.081 235.215C260.864 236.288 259.332 238.378 258.981 240.811C257.395 251.785 255.755 282.229 282.724 298.032C295.14 305.312 360.648 275.327 402.98 303.078" fill="#414042"/>
<path d="M349.438 141.135C322.641 202.924 275.939 228.999 263.081 235.215C260.864 236.288 259.332 238.378 258.981 240.811C257.395 251.785 255.755 282.229 282.724 298.032C295.14 305.312 360.648 275.327 402.98 303.078" stroke="#414042" stroke-width="2.0943" stroke-miterlimit="10" stroke-linecap="round" stroke-linejoin="round"/>
<path d="M407.836 213.709C447.591 333.585 403.412 341.144 363.107 229.377C323.344 109.501 367.532 101.941 407.836 213.709Z" fill="#FF2B06" stroke="#FF2B06" stroke-width="1.6649" stroke-miterlimit="10" stroke-linecap="round" stroke-linejoin="round"/>
<path d="M405.963 214.276C445.718 334.152 401.539 341.712 361.234 229.944C321.47 110.068 365.659 102.509 405.963 214.276Z" fill="#FF2B06" stroke="#FF2B06" stroke-width="1.6649" stroke-miterlimit="10" stroke-linecap="round" stroke-linejoin="round"/>
<path d="M411.963 295.888C402.691 290.545 388.094 267.038 373.073 225.188C356.647 176.12 354.8 148.568 361.062 142.756C368.46 135.882 387.184 159.335 406.611 213.448C427.435 275.661 424.83 303.285 411.963 295.888Z" fill="#FF5106" stroke="#FF2B06" stroke-width="1.3628" stroke-miterlimit="10" stroke-linecap="round" stroke-linejoin="round"/>
<path d="M411.963 295.888C402.691 290.545 388.094 267.038 373.073 225.188C356.647 176.12 354.8 148.568 361.062 142.756C370.334 148.099 384.94 171.606 399.961 213.448C416.378 262.515 418.235 290.068 411.963 295.888Z" fill="#E6E7E8" stroke="#E6E7E8" stroke-width="1.3628" stroke-miterlimit="10" stroke-linecap="round" stroke-linejoin="round"/>
<g filter="url(#filter2_d)">
<path d="M386.662 226.71C394.132 249.235 385.833 250.658 378.255 229.656C370.794 207.123 379.093 205.708 386.662 226.71Z" fill="#FF2B06"/>
<path d="M386.662 226.71C394.132 249.235 385.833 250.658 378.255 229.656C370.794 207.123 379.093 205.708 386.662 226.71Z" stroke="#FF2B06" stroke-width="1.2566" stroke-miterlimit="10" stroke-linecap="round" stroke-linejoin="round"/>
</g>
<path d="M386.257 227.25C390.987 241.522 385.734 242.423 380.931 229.115C376.201 214.835 381.463 213.943 386.257 227.25Z" fill="white" stroke="white" stroke-width="1.2566" stroke-miterlimit="10" stroke-linecap="round" stroke-linejoin="round"/>
</g>
<g filter="url(#filter3_di)">
<path d="M32.5565 235.462C52.582 226.018 82.738 211.815 102.379 202.556C108.246 199.789 114.975 204.589 113.25 210.424C108.066 228.079 109.554 257.224 154.316 287.266C159.116 290.483 159.796 306.538 154.256 308.679C136.682 315.495 103.693 318.429 83.4494 326.269C64.4486 333.635 42.5032 331.826 26.1754 320.609C13.287 311.756 2.64922 296.974 5.07079 272.392C6.60453 256.667 17.1275 242.729 32.5565 235.462Z" fill="#414042"/>
<path d="M93.0286 209.529C61.6546 209.031 46.9747 320.547 142.461 317.493L93.0286 209.529Z" fill="#8E8F93"/>
<path d="M250.92 31.7839C201.859 144.908 116.357 192.645 92.8161 204.027C88.758 205.99 85.9535 209.816 85.3102 214.27C82.4068 234.361 79.4044 290.098 128.779 319.031C151.511 332.359 271.441 277.463 348.943 328.268" fill="#414042"/>
<path d="M250.92 31.7839C201.859 144.908 116.357 192.645 92.8161 204.027C88.758 205.99 85.9535 209.816 85.3102 214.27C82.4068 234.361 79.4044 290.098 128.779 319.031C151.511 332.359 271.441 277.463 348.943 328.268" stroke="#414042" stroke-width="2.0943" stroke-miterlimit="10" stroke-linecap="round" stroke-linejoin="round"/>
<path d="M357.834 164.653C430.617 384.121 349.734 397.96 275.945 193.338C203.145 -26.1306 284.045 -39.97 357.834 164.653Z" fill="#FF2B06" stroke="#FF2B06" stroke-width="1.6649" stroke-miterlimit="10" stroke-linecap="round" stroke-linejoin="round"/>
<path d="M354.403 165.692C427.186 385.16 346.304 399 272.514 194.377C199.715 -25.0913 280.614 -38.9307 354.403 165.692Z" fill="#FF2B06" stroke="#FF2B06" stroke-width="1.6649" stroke-miterlimit="10" stroke-linecap="round" stroke-linejoin="round"/>
<path d="M365.39 315.105C348.415 305.324 321.691 262.288 294.191 185.667C264.118 95.8347 260.736 45.3925 272.201 34.7531C285.745 22.1672 320.025 65.1042 355.591 164.174C393.715 278.074 388.948 328.648 365.39 315.105Z" fill="#FF5106" stroke="#FF2B06" stroke-width="1.3628" stroke-miterlimit="10" stroke-linecap="round" stroke-linejoin="round"/>
<path d="M365.39 315.105C348.415 305.324 321.691 262.288 294.191 185.668C264.118 95.8348 260.736 45.3926 272.201 34.7532C289.176 44.5348 315.917 87.5707 343.417 164.174C373.474 254.007 376.872 304.449 365.39 315.105Z" fill="#E6E7E8" stroke="#E6E7E8" stroke-width="1.3628" stroke-miterlimit="10" stroke-linecap="round" stroke-linejoin="round"/>
<g filter="url(#filter4_d)">
<path d="M319.067 188.455C332.743 229.693 317.55 232.299 303.676 193.849C290.017 152.594 305.21 150.005 319.067 188.455Z" fill="#FF2B06"/>
<path d="M319.067 188.455C332.743 229.693 317.55 232.299 303.676 193.849C290.017 152.594 305.21 150.005 319.067 188.455Z" stroke="#FF2B06" stroke-width="1.2566" stroke-miterlimit="10" stroke-linecap="round" stroke-linejoin="round"/>
</g>
<path d="M318.325 189.445C326.986 215.573 317.368 217.223 308.576 192.859C299.915 166.715 309.549 165.082 318.325 189.445Z" fill="white" stroke="white" stroke-width="1.2566" stroke-miterlimit="10" stroke-linecap="round" stroke-linejoin="round"/>
</g>
<g filter="url(#filter5_di)">
<path d="M32.6531 281.732C45.9207 275.566 65.9003 266.292 78.9133 260.247C82.8006 258.441 87.2542 261.565 86.1087 265.37C82.6659 276.88 83.636 295.876 113.266 315.434C116.443 317.528 116.885 327.992 113.215 329.391C101.572 333.843 79.7218 335.773 66.3107 340.894C53.7227 345.705 39.1895 344.538 28.3817 337.235C19.8505 331.471 12.8131 321.842 14.4299 305.818C15.454 295.568 22.4307 286.477 32.6531 281.732Z" fill="#414042"/>
<path d="M63.3925 265.805C42.613 265.475 32.8902 339.335 96.1322 337.311L63.3925 265.805Z" fill="#8E8F93"/>
<path d="M167.967 146.216C135.473 221.139 78.8436 252.757 63.2522 260.295C60.5644 261.595 58.707 264.13 58.2808 267.079C56.3579 280.386 54.3693 317.302 87.0708 336.464C102.127 345.292 181.559 308.933 232.889 342.582" fill="#414042"/>
<path d="M167.967 146.216C135.473 221.139 78.8436 252.757 63.2522 260.295C60.5644 261.595 58.707 264.13 58.2808 267.079C56.3579 280.386 54.3693 317.302 87.0708 336.464C102.127 345.292 181.559 308.933 232.889 342.582" stroke="#414042" stroke-width="2.0943" stroke-miterlimit="10" stroke-linecap="round" stroke-linejoin="round"/>
<path d="M238.778 234.217C286.984 379.574 233.414 388.74 184.542 253.215C136.325 107.858 189.906 98.6916 238.778 234.217Z" fill="#FF2B06" stroke="#FF2B06" stroke-width="1.6649" stroke-miterlimit="10" stroke-linecap="round" stroke-linejoin="round"/>
<path d="M236.506 234.905C284.711 380.263 231.141 389.429 182.269 253.904C134.053 108.546 187.634 99.3801 236.506 234.905Z" fill="#FF2B06" stroke="#FF2B06" stroke-width="1.6649" stroke-miterlimit="10" stroke-linecap="round" stroke-linejoin="round"/>
<path d="M243.782 333.864C232.539 327.385 214.839 298.882 196.625 248.135C176.707 188.637 174.467 155.229 182.061 148.182C191.031 139.846 213.736 168.284 237.292 233.9C262.542 309.337 259.384 342.833 243.782 333.864Z" fill="#FF5106" stroke="#FF2B06" stroke-width="1.3628" stroke-miterlimit="10" stroke-linecap="round" stroke-linejoin="round"/>
<path d="M243.782 333.864C232.539 327.385 214.839 298.882 196.625 248.135C176.707 188.637 174.467 155.228 182.061 148.182C193.304 154.66 211.015 183.164 229.229 233.9C249.136 293.397 251.386 326.806 243.782 333.864Z" fill="#E6E7E8" stroke="#E6E7E8" stroke-width="1.3628" stroke-miterlimit="10" stroke-linecap="round" stroke-linejoin="round"/>
<g filter="url(#filter6_d)">
<path d="M213.102 249.981C222.16 277.294 212.097 279.02 202.908 253.554C193.862 226.23 203.924 224.515 213.102 249.981Z" fill="#FF2B06"/>
<path d="M213.102 249.981C222.16 277.294 212.097 279.02 202.908 253.554C193.862 226.23 203.924 224.515 213.102 249.981Z" stroke="#FF2B06" stroke-width="1.2566" stroke-miterlimit="10" stroke-linecap="round" stroke-linejoin="round"/>
</g>
<path d="M212.61 250.637C218.346 267.942 211.976 269.035 206.152 252.898C200.416 235.582 206.797 234.501 212.61 250.637Z" fill="white" stroke="white" stroke-width="1.2566" stroke-miterlimit="10" stroke-linecap="round" stroke-linejoin="round"/>
</g>
</g>
<g clip-path="url(#clip0)" filter="url(#filter7_i)">
<path d="M436.952 206.995C440.869 187.531 439.593 166.768 432.159 146.79C424.674 126.672 411.945 110.028 396.079 97.8433C415.007 106.96 430.572 123.128 438.479 144.379C446.339 165.503 445.184 187.795 436.952 206.995Z" fill="#FF2B06" stroke="#FF2B06" stroke-width="1.6649" stroke-miterlimit="10" stroke-linecap="round" stroke-linejoin="round"/>
<path d="M463.553 229.492C469.509 199.889 467.571 168.312 456.262 137.918C444.878 107.32 425.515 81.9983 401.389 63.4658C430.184 77.3315 453.854 101.92 465.882 134.249C477.84 166.387 476.076 200.285 463.553 229.492Z" fill="#FF2B06" stroke="#FF2B06" stroke-width="2.5323" stroke-miterlimit="10" stroke-linecap="round" stroke-linejoin="round"/>
<path d="M502.551 252.591C510.876 211.205 508.165 167.071 492.36 124.593C476.447 81.823 449.383 46.437 415.659 20.5327C455.901 39.9222 488.993 74.2958 505.802 119.473C522.511 164.382 520.058 211.773 502.551 252.591Z" fill="#FF2B06" stroke="#FF2B06" stroke-width="3.5396" stroke-miterlimit="10" stroke-linecap="round" stroke-linejoin="round"/>
</g>
<defs>
<filter id="filter0_d" x="1.72461" y="11.7283" width="443.527" height="356.105" filterUnits="userSpaceOnUse" color-interpolation-filters="sRGB">
<feFlood flood-opacity="0" result="BackgroundImageFix"/>
<feColorMatrix in="SourceAlpha" type="matrix" values="0 0 0 0 0 0 0 0 0 0 0 0 0 0 0 0 0 0 127 0"/>
<feOffset dx="9" dy="5"/>
<feGaussianBlur stdDeviation="6"/>
<feColorMatrix type="matrix" values="0 0 0 0 0 0 0 0 0 0 0 0 0 0 0 0 0 0 0.31 0"/>
<feBlend mode="normal" in2="BackgroundImageFix" result="effect1_dropShadow"/>
<feBlend mode="normal" in="SourceGraphic" in2="effect1_dropShadow" result="shape"/>
</filter>
<filter id="filter1_di" x="207.965" y="133.625" width="220.286" height="184.403" filterUnits="userSpaceOnUse" color-interpolation-filters="sRGB">
<feFlood flood-opacity="0" result="BackgroundImageFix"/>
<feColorMatrix in="SourceAlpha" type="matrix" values="0 0 0 0 0 0 0 0 0 0 0 0 0 0 0 0 0 0 127 0"/>
<feOffset dy="4"/>
<feGaussianBlur stdDeviation="2"/>
<feColorMatrix type="matrix" values="0 0 0 0 0 0 0 0 0 0 0 0 0 0 0 0 0 0 0.25 0"/>
<feBlend mode="normal" in2="BackgroundImageFix" result="effect1_dropShadow"/>
<feBlend mode="normal" in="SourceGraphic" in2="effect1_dropShadow" result="shape"/>
<feColorMatrix in="SourceAlpha" type="matrix" values="0 0 0 0 0 0 0 0 0 0 0 0 0 0 0 0 0 0 127 0" result="hardAlpha"/>
<feOffset dx="-7" dy="13"/>
<feGaussianBlur stdDeviation="3.5"/>
<feComposite in2="hardAlpha" operator="arithmetic" k2="-1" k3="1"/>
<feColorMatrix type="matrix" values="0 0 0 0 1 0 0 0 0 1 0 0 0 0 1 0 0 0 0.25 0"/>
<feBlend mode="normal" in2="shape" result="effect2_innerShadow"/>
</filter>
<filter id="filter2_d" x="367.704" y="211.188" width="23.5144" height="41.988" filterUnits="userSpaceOnUse" color-interpolation-filters="sRGB">
<feFlood flood-opacity="0" result="BackgroundImageFix"/>
<feColorMatrix in="SourceAlpha" type="matrix" values="0 0 0 0 0 0 0 0 0 0 0 0 0 0 0 0 0 0 127 0"/>
<feOffset dx="-3" dy="4"/>
<feGaussianBlur stdDeviation="2"/>
<feColorMatrix type="matrix" values="0 0 0 0 0 0 0 0 0 0 0 0 0 0 0 0 0 0 0.27 0"/>
<feBlend mode="normal" in2="BackgroundImageFix" result="effect1_dropShadow"/>
<feBlend mode="normal" in="SourceGraphic" in2="effect1_dropShadow" result="shape"/>
</filter>
<filter id="filter3_di" x="-2.27539" y="18.7283" width="393.47" height="329.573" filterUnits="userSpaceOnUse" color-interpolation-filters="sRGB">
<feFlood flood-opacity="0" result="BackgroundImageFix"/>
<feColorMatrix in="SourceAlpha" type="matrix" values="0 0 0 0 0 0 0 0 0 0 0 0 0 0 0 0 0 0 127 0"/>
<feOffset dy="4"/>
<feGaussianBlur stdDeviation="2"/>
<feColorMatrix type="matrix" values="0 0 0 0 0 0 0 0 0 0 0 0 0 0 0 0 0 0 0.25 0"/>
<feBlend mode="normal" in2="BackgroundImageFix" result="effect1_dropShadow"/>
<feBlend mode="normal" in="SourceGraphic" in2="effect1_dropShadow" result="shape"/>
<feColorMatrix in="SourceAlpha" type="matrix" values="0 0 0 0 0 0 0 0 0 0 0 0 0 0 0 0 0 0 127 0" result="hardAlpha"/>
<feOffset dx="-7" dy="13"/>
<feGaussianBlur stdDeviation="3.5"/>
<feComposite in2="hardAlpha" operator="arithmetic" k2="-1" k3="1"/>
<feColorMatrix type="matrix" values="0 0 0 0 1 0 0 0 0 1 0 0 0 0 1 0 0 0 0.25 0"/>
<feBlend mode="normal" in2="shape" result="effect2_innerShadow"/>
</filter>
<filter id="filter4_d" x="290.697" y="160.559" width="35.3597" height="69.1802" filterUnits="userSpaceOnUse" color-interpolation-filters="sRGB">
<feFlood flood-opacity="0" result="BackgroundImageFix"/>
<feColorMatrix in="SourceAlpha" type="matrix" values="0 0 0 0 0 0 0 0 0 0 0 0 0 0 0 0 0 0 127 0"/>
<feOffset dx="-3" dy="4"/>
<feGaussianBlur stdDeviation="2"/>
<feColorMatrix type="matrix" values="0 0 0 0 0 0 0 0 0 0 0 0 0 0 0 0 0 0 0.27 0"/>
<feBlend mode="normal" in2="BackgroundImageFix" result="effect1_dropShadow"/>
<feBlend mode="normal" in="SourceGraphic" in2="effect1_dropShadow" result="shape"/>
</filter>
<filter id="filter5_di" x="7.19727" y="137.287" width="255.308" height="221.546" filterUnits="userSpaceOnUse" color-interpolation-filters="sRGB">
<feFlood flood-opacity="0" result="BackgroundImageFix"/>
<feColorMatrix in="SourceAlpha" type="matrix" values="0 0 0 0 0 0 0 0 0 0 0 0 0 0 0 0 0 0 127 0"/>
<feOffset dy="4"/>
<feGaussianBlur stdDeviation="2"/>
<feColorMatrix type="matrix" values="0 0 0 0 0 0 0 0 0 0 0 0 0 0 0 0 0 0 0.25 0"/>
<feBlend mode="normal" in2="BackgroundImageFix" result="effect1_dropShadow"/>
<feBlend mode="normal" in="SourceGraphic" in2="effect1_dropShadow" result="shape"/>
<feColorMatrix in="SourceAlpha" type="matrix" values="0 0 0 0 0 0 0 0 0 0 0 0 0 0 0 0 0 0 127 0" result="hardAlpha"/>
<feOffset dx="-7" dy="13"/>
<feGaussianBlur stdDeviation="3.5"/>
<feComposite in2="hardAlpha" operator="arithmetic" k2="-1" k3="1"/>
<feColorMatrix type="matrix" values="0 0 0 0 1 0 0 0 0 1 0 0 0 0 1 0 0 0 0.25 0"/>
<feBlend mode="normal" in2="shape" result="effect2_innerShadow"/>
</filter>
<filter id="filter6_d" x="191.736" y="231.293" width="26.5452" height="48.9454" filterUnits="userSpaceOnUse" color-interpolation-filters="sRGB">
<feFlood flood-opacity="0" result="BackgroundImageFix"/>
<feColorMatrix in="SourceAlpha" type="matrix" values="0 0 0 0 0 0 0 0 0 0 0 0 0 0 0 0 0 0 127 0"/>
<feOffset dx="-3" dy="4"/>
<feGaussianBlur stdDeviation="2"/>
<feColorMatrix type="matrix" values="0 0 0 0 0 0 0 0 0 0 0 0 0 0 0 0 0 0 0.27 0"/>
<feBlend mode="normal" in2="BackgroundImageFix" result="effect1_dropShadow"/>
<feBlend mode="normal" in="SourceGraphic" in2="effect1_dropShadow" result="shape"/>
</filter>
<filter id="filter7_i" x="367.301" y="0" width="184.699" height="272.228" filterUnits="userSpaceOnUse" color-interpolation-filters="sRGB">
<feFlood flood-opacity="0" result="BackgroundImageFix"/>
<feBlend mode="normal" in="SourceGraphic" in2="BackgroundImageFix" result="shape"/>
<feColorMatrix in="SourceAlpha" type="matrix" values="0 0 0 0 0 0 0 0 0 0 0 0 0 0 0 0 0 0 127 0" result="hardAlpha"/>
<feOffset dx="-4" dy="1"/>
<feGaussianBlur stdDeviation="7.5"/>
<feComposite in2="hardAlpha" operator="arithmetic" k2="-1" k3="1"/>
<feColorMatrix type="matrix" values="0 0 0 0 1 0 0 0 0 1 0 0 0 0 1 0 0 0 0.52 0"/>
<feBlend mode="normal" in2="shape" result="effect1_innerShadow"/>
</filter>
<clipPath id="clip0">
<rect width="98.825" height="252.602" fill="white" transform="matrix(0.937152 -0.348922 0.348712 0.93723 371.301 34.4822)"/>
</clipPath>
</defs>
</svg>
