<svg width="245" height="245" viewBox="0 0 245 245" fill="none" xmlns="http://www.w3.org/2000/svg">
<g filter="url(#filter0_d)">
<path d="M122.505 0C57.0565 0 4 53.0661 4 118.505C4 183.953 57.0565 237 122.505 237C187.953 237 241 183.953 241 118.505C241 53.0661 187.948 0 122.505 0ZM182.198 94.6114C182.26 95.8914 182.284 97.1764 182.284 98.4757C182.284 137.942 152.245 183.443 97.3168 183.443C80.4543 183.443 64.7515 178.501 51.5367 170.031C53.8755 170.305 56.248 170.445 58.659 170.445C72.6534 170.445 85.5313 165.671 95.748 157.663C82.6824 157.418 71.6572 148.779 67.8554 136.917C69.6745 137.273 71.5465 137.451 73.4715 137.451C76.1953 137.451 78.8325 137.095 81.3397 136.407C67.6726 133.664 57.3789 121.585 57.3789 107.128C57.3789 106.998 57.3789 106.873 57.3837 106.743C61.4069 108.981 66.0123 110.324 70.9113 110.483C62.8939 105.117 57.6243 95.9877 57.6243 85.6218C57.6243 80.1502 59.0969 75.0154 61.6667 70.6072C76.3974 88.6729 98.4044 100.564 123.227 101.806C122.717 99.6259 122.452 97.34 122.452 95.0012C122.452 78.514 135.821 65.1404 152.317 65.1404C160.908 65.1404 168.665 68.7689 174.113 74.5678C180.917 73.2348 187.308 70.742 193.078 67.3204C190.841 74.2983 186.11 80.1502 179.941 83.8413C185.99 83.1194 191.745 81.5121 197.097 79.1396C193.102 85.1406 188.035 90.4005 182.198 94.6114Z" fill="#414042"/>
</g>
<defs>
<filter id="filter0_d" x="0" y="0" width="245" height="245" filterUnits="userSpaceOnUse" color-interpolation-filters="sRGB">
<feFlood flood-opacity="0" result="BackgroundImageFix"/>
<feColorMatrix in="SourceAlpha" type="matrix" values="0 0 0 0 0 0 0 0 0 0 0 0 0 0 0 0 0 0 127 0"/>
<feOffset dy="4"/>
<feGaussianBlur stdDeviation="2"/>
<feColorMatrix type="matrix" values="0 0 0 0 0 0 0 0 0 0 0 0 0 0 0 0 0 0 0.25 0"/>
<feBlend mode="normal" in2="BackgroundImageFix" result="effect1_dropShadow"/>
<feBlend mode="normal" in="SourceGraphic" in2="effect1_dropShadow" result="shape"/>
</filter>
</defs>
</svg>
